# xmcd CD database file
#
# Track frame offsets:
#	150
#	29452
#	56615
#	96546
#	118119
#	145744
#	173034
#	207042
#	232330
#
# Disc length: 3427 seconds
#
# Revision: 0
# Processed by: cddbd v1.5.2PL0 Copyright (c) Steve Scherf et al.
# Submitted via: CDex 1.70beta2
#
DISCID=820d6109
DTITLE=マナミ・モリタ - FOR YOU
DYEAR=2010
DGENRE=Jazz
TTITLE0=MAGIC
TTITLE1=Catch The Pandu
TTITLE2=Shima
TTITLE3=ASAP
TTITLE4=Moanin'
TTITLE5=Sing Nightly
TTITLE6=Fall Forward
TTITLE7=Wherever I Go
TTITLE8=Yesterday Once More
EXTD=YEAR: 2010
EXTT0=
EXTT1=
EXTT2=
EXTT3=
EXTT4=
EXTT5=
EXTT6=
EXTT7=
EXTT8=
PLAYORDER=
